<svg width="40" height="40" viewBox="0 0 40 40" fill="none" xmlns="http://www.w3.org/2000/svg">
<path d="M18.1818 10C16.5636 10 14.9817 10.4799 13.6362 11.3789C12.2907 12.2779 11.2421 13.5557 10.6228 15.0507C10.0035 16.5458 9.84152 18.1908 10.1572 19.778C10.4729 21.3651 11.2521 22.8229 12.3964 23.9672C13.5406 25.1114 14.9985 25.8906 16.5856 26.2063C18.1727 26.522 19.8178 26.36 21.3128 25.7407C22.8078 25.1215 24.0856 24.0728 24.9847 22.7273C25.8837 21.3818 26.3635 19.8 26.3635 18.1818C26.3634 16.0119 25.5014 13.9309 23.967 12.3965C22.4327 10.8622 20.3517 10.0001 18.1818 10Z" stroke="#4D4D4D" stroke-width="2" stroke-miterlimit="10"/>
<path d="M24.2861 24.2859L30.0002 29.9999" stroke="#4D4D4D" stroke-width="2" stroke-miterlimit="10" stroke-linecap="round"/>
</svg>
