<svg width="24" height="24" viewBox="0 0 24 24" fill="none" xmlns="http://www.w3.org/2000/svg">
<path d="M8.99982 13.6413L6.41543 14.801C5.86543 15.051 5.86543 15.4604 6.41543 15.7104L11.0405 17.8198C11.5683 18.0601 12.437 18.0601 12.9648 17.8198L17.5899 15.7104C18.1399 15.4604 18.1399 15.051 17.5899 14.801L15.0917 13.5988M17.5874 8.30158L12.9198 6.17344C12.4139 5.94219 11.5858 5.94219 11.0798 6.17344L6.41543 8.30158C5.86543 8.55158 5.86543 8.96064 6.41543 9.21065L11.0405 11.32C11.5683 11.5607 12.437 11.5607 12.9648 11.32L17.5899 9.21065C18.1374 8.96064 18.1374 8.55127 17.5874 8.30158Z" stroke="#1E8F0A" stroke-width="2" stroke-linecap="round" stroke-linejoin="round"/>
<path d="M9.00002 10.39L6.4125 11.5513C5.8625 11.8013 5.8625 12.2107 6.4125 12.4607L11.0375 14.5697C11.5653 14.8104 12.4341 14.8104 12.9619 14.5697L17.5869 12.4607C18.1401 12.2107 18.1401 11.8013 17.5901 11.5513L15.0001 10.39" stroke="#1E8F0A" stroke-width="2" stroke-linecap="round" stroke-linejoin="round"/>
</svg>
