<svg width="40" height="40" viewBox="0 0 40 40" fill="none" xmlns="http://www.w3.org/2000/svg">
<rect x="1" y="1" width="38" height="38" rx="7" fill="white"/>
<rect x="1" y="1" width="38" height="38" rx="7" stroke="#D9D9D9" stroke-width="2"/>
<path d="M22.5889 26.1538V26.9231C22.5889 27.7391 22.2635 28.5218 21.6843 29.0988C21.1052 29.6758 20.3196 30 19.5006 30C18.6815 30 17.896 29.6758 17.3168 29.0988C16.7377 28.5218 16.4123 27.7391 16.4123 26.9231V26.1538M27.7849 24.588C26.5457 23.0769 25.6709 22.3077 25.6709 18.1418C25.6709 14.3269 23.7156 12.9678 22.1063 12.3077C21.8926 12.2202 21.6913 12.0192 21.6262 11.8005C21.3439 10.8433 20.5525 10 19.5006 10C18.4486 10 17.6568 10.8438 17.3774 11.8014C17.3122 12.0226 17.111 12.2202 16.8972 12.3077C15.286 12.9688 13.3327 14.3231 13.3327 18.1418C13.3303 22.3077 12.4554 23.0769 11.2162 24.588C10.7028 25.2139 11.1525 26.1538 12.0506 26.1538H26.9554C27.8486 26.1538 28.2954 25.2111 27.7849 24.588Z" stroke="#4D4D4D" stroke-width="2" stroke-linecap="round" stroke-linejoin="round"/>
</svg>
