<svg width="24" height="24" viewBox="0 0 24 24" fill="none" xmlns="http://www.w3.org/2000/svg">
<path d="M18 15.1669V9.83062C17.9998 9.65596 17.9538 9.48441 17.8667 9.33303C17.7796 9.18165 17.6543 9.05573 17.5034 8.9678L12.7534 6.20343C12.5246 6.07019 12.2645 6 11.9997 6C11.7349 6 11.4748 6.07019 11.2459 6.20343L6.49656 8.9678C6.34565 9.05573 6.22041 9.18165 6.13329 9.33303C6.04617 9.48441 6.00021 9.65596 6 9.83062V15.1669C6.0001 15.3416 6.04601 15.5133 6.13313 15.6648C6.22026 15.8163 6.34556 15.9423 6.49656 16.0303L11.2466 18.7947C11.4755 18.9277 11.7355 18.9978 12.0003 18.9978C12.2651 18.9978 12.5251 18.9277 12.7541 18.7947L17.5041 16.0303C17.6549 15.9422 17.7801 15.8162 17.8671 15.6647C17.9542 15.5132 18 15.3416 18 15.1669Z" stroke="#600C06" stroke-width="2" stroke-linecap="round" stroke-linejoin="round"/>
<path d="M6.15625 9.31116L12 12.7487M12 12.7487L17.8438 9.31116M12 12.7487V18.9987" stroke="#600C06" stroke-width="2" stroke-linecap="round" stroke-linejoin="round"/>
</svg>
